# xmcd CD database file
#
# Track frame offsets:
#	150
#	14447
#	25639
#	45246
#	57455
#	68249
#	78968
#	90562
#	102271
#	112823
#	131111
#	142214
#	154772
#	164001
#	176318
#	189195
#	201441
#	212865
#	228306
#	242352
#
# Disc length: 3483 seconds
#
# Revision: 1
# Processed by: cddbd v1.5.1PL2 Copyright (c) Steve Scherf et al.
# Submitted via: CDex 1.51
#
DISCID=090d9914
DTITLE=Various Artist - Country Roads (America In Story And Song) Disc 1
DYEAR=1900
DGENRE=Country
TTITLE0=John Denver - Take Me Home, Country Roads
TTITLE1=Johnny Cash - Green, Green Grass Of Home
TTITLE2=Willie Nelson - Georgia On My Mind
TTITLE3=Glen Campbell - By The Time I Get To Pheonix
TTITLE4=Charley Pride - Mississippi Cotton Picking Delta Town
TTITLE5=Loretta Lynn - BlueBerry Hill
TTITLE6=Roy Rogers With The Sons Of The Pioneers - The Yellow Rose Of Texas
TTITLE7=The Osborne Brothers - Rocky Top
TTITLE8=Patsy Cline - San Antonio Rose
TTITLE9=Alabama - My Home's In Alabama
TTITLE10=Eddy Arnold And The Needmore Creek Singers - Cotton Fields
TTITLE11=Merle Haggard - Sing Me Back Home
TTITLE12=Elvis Presley - Blue Moon Of Kentucky
TTITLE13=Gene Autry - Deep In The Heart Of Texas
TTITLE14=Patti Page With Vic Schoen's Ochestra - Allegheny Moon
TTITLE15=Bobby Bare - Five Hundred Miles From Home
TTITLE16=Loretta Lynn With Conway Twitty - Louisiana Woman, Mississippi Man
TTITLE17=Earl Thomas Conley - Smokey Mountain Memories
TTITLE18=Lee Greenwood - Dixie Road
TTITLE19=John Denver - Rocky Mountain High
EXTD=
EXTT0=
EXTT1=
EXTT2=
EXTT3=
EXTT4=
EXTT5=
EXTT6=
EXTT7=
EXTT8=
EXTT9=
EXTT10=
EXTT11=
EXTT12=
EXTT13=
EXTT14=
EXTT15=
EXTT16=
EXTT17=
EXTT18=
EXTT19=
PLAYORDER=
